<?xml version="1.0" encoding="utf-8"?>
<!-- Generator: Adobe Illustrator 16.0.0, SVG Export Plug-In . SVG Version: 6.00 Build 0)  -->
<!DOCTYPE svg PUBLIC "-//W3C//DTD SVG 1.1//EN" "http://www.w3.org/Graphics/SVG/1.1/DTD/svg11.dtd">
<svg version="1.1" id="Layer_1" xmlns="http://www.w3.org/2000/svg" xmlns:xlink="http://www.w3.org/1999/xlink" x="0px" y="0px"
	 width="196.218px" height="31.872px" viewBox="0 0 196.218 31.872" enable-background="new 0 0 196.218 31.872"
	 xml:space="preserve">
<path fill="#BD8F5F" d="M25.824,2.112c-4.192,0-8.448,1.328-12.768,3.984c-4.032,2.432-7.313,5.489-9.84,9.168
	C1.072,18.369,0,21.233,0,23.856c0,2.208,0.848,3.872,2.544,4.992c1.44,0.96,3.328,1.44,5.664,1.44c2.848,0,6.032-0.833,9.552-2.496
	c3.2-1.503,5.968-3.328,8.304-5.472c0.127-0.127,0.192-0.271,0.192-0.432c0-0.416-0.192-0.624-0.576-0.624
	c-0.128,0-0.256,0.048-0.384,0.144c-5.472,4.544-11.12,6.816-16.944,6.816c-1.824,0-3.264-0.416-4.32-1.248
	c-1.184-0.928-1.776-2.271-1.776-4.032c0-2.815,1.296-5.76,3.888-8.832c2.335-2.72,5.264-5.096,8.784-7.128
	c3.52-2.032,6.655-3.192,9.408-3.48c0.511-0.064,1.04-0.096,1.584-0.096c2.656,0,3.984,0.785,3.984,2.352
	c0,1.601-1.073,3.216-3.216,4.848c-2.145,1.632-4.064,2.448-5.76,2.448c-1.632,0-2.448-0.624-2.448-1.872
	c0-0.096,0.016-0.24,0.048-0.432c0.031-0.192,0.048-0.336,0.048-0.432c0-0.288-0.112-0.432-0.336-0.432
	c-0.576,0-0.864,0.641-0.864,1.92c0,1.792,1.167,2.688,3.504,2.688c2.271,0,4.527-0.88,6.768-2.64c2.4-1.824,3.6-3.824,3.6-6
	C31.248,3.36,29.44,2.112,25.824,2.112L25.824,2.112z"/>
<path fill="#BD8F5F" d="M42.096,22.032c-0.064,0-0.497,0.512-1.296,1.536c-0.96,1.248-1.824,2.208-2.592,2.88
	c-1.152,1.024-2.177,1.536-3.072,1.536c-1.056,0-1.584-0.56-1.584-1.68c0-1.184,0.568-2.863,1.704-5.04
	c1.135-2.176,1.704-3.248,1.704-3.216c0-0.32-0.12-0.6-0.36-0.84c-0.24-0.24-0.504-0.36-0.792-0.36c-0.256,0-0.496,0.128-0.72,0.384
	c-0.449,0.8-0.785,1.424-1.008,1.872c-2.657,4.673-4.497,7.008-5.52,7.008c-0.608,0-0.912-0.512-0.912-1.536
	c0-0.768,0.408-1.864,1.224-3.288c0.816-1.423,1.224-2.152,1.224-2.184c0-0.255-0.24-0.384-0.72-0.384
	c-0.864,0-1.665,0.833-2.4,2.496c-0.672,1.44-1.008,2.672-1.008,3.696c0,1.792,0.528,2.688,1.584,2.688
	c0.832,0,1.776-0.624,2.832-1.872c0.319-0.384,1.04-1.392,2.16-3.024c-0.48,1.504-0.72,2.513-0.72,3.024
	c0,2.241,0.896,3.36,2.688,3.36c1.344,0,2.784-0.705,4.32-2.112c1.183-1.087,2.224-2.368,3.12-3.84
	c0.192-0.319,0.288-0.592,0.288-0.816C42.24,22.128,42.192,22.032,42.096,22.032L42.096,22.032z"/>
<path fill="#BD8F5F" d="M57.743,0.648C57.391,0.216,57.023,0,56.639,0c-1.184,0-2.657,0.96-4.416,2.88
	c-2.464,2.72-4.784,5.936-6.96,9.648c-2.657,4.544-3.984,8.16-3.984,10.848c0,3.936,1.2,5.904,3.6,5.904
	c1.408,0,3.024-0.705,4.848-2.112c1.44-1.088,2.72-2.368,3.84-3.84c0.096-0.127,0.144-0.256,0.144-0.384
	c0-0.224-0.08-0.336-0.24-0.336c-0.128,0-0.256,0.08-0.384,0.24c-3.232,3.617-5.729,5.424-7.488,5.424
	c-1.76,0-2.64-1.744-2.64-5.232c2.815-2.624,5.856-5.968,9.12-10.032c4.128-5.215,6.192-8.912,6.192-11.088
	C58.271,1.505,58.095,1.08,57.743,0.648z M55.775,4.176c-0.64,1.92-2.496,5.024-5.568,9.312c-2.976,4.097-5.344,6.912-7.104,8.448
	c0.416-2.047,1.696-5.136,3.84-9.264c1.951-3.776,3.696-6.704,5.232-8.784C53.519,2.096,54.655,1.2,55.583,1.2
	c0.416,0,0.624,0.305,0.624,0.912C56.207,2.592,56.063,3.281,55.775,4.176L55.775,4.176z"/>
<path fill="#BD8F5F" d="M58.031,12.672c-0.416,0-0.776,0.152-1.08,0.456c-0.304,0.304-0.456,0.648-0.456,1.032
	c0,0.768,0.384,1.152,1.152,1.152c0.416,0,0.775-0.151,1.08-0.456c0.304-0.304,0.456-0.648,0.456-1.032
	C59.183,13.056,58.799,12.672,58.031,12.672L58.031,12.672z M62.159,22.128c-0.032,0-0.448,0.512-1.248,1.536
	c-0.928,1.185-1.776,2.112-2.544,2.784c-1.152,1.024-2.192,1.536-3.12,1.536c-0.833,0-1.248-0.576-1.248-1.728
	c0-1.664,0.799-3.744,2.4-6.24c0.127-0.192,0.192-0.367,0.192-0.528c0-0.288-0.12-0.56-0.36-0.816
	c-0.24-0.256-0.504-0.384-0.792-0.384c-0.257,0-0.48,0.144-0.672,0.432c-0.64,0.864-1.248,2.064-1.824,3.6
	c-0.641,1.664-0.96,2.976-0.96,3.936c0,1.888,0.88,2.832,2.64,2.832c2.047,0,4.527-1.936,7.44-5.808
	c0.223-0.288,0.336-0.544,0.336-0.768C62.399,22.256,62.319,22.128,62.159,22.128L62.159,22.128z"/>
<path fill="#BD8F5F" d="M88.605,4.08c-3.072-0.672-6.272-1.008-9.6-1.008c-4.704,0-8.801,0.576-12.288,1.728
	c-0.448,0.161-0.896,0.448-1.344,0.864c-0.543,0.48-0.816,0.912-0.816,1.296c0,0.192,0.112,0.288,0.336,0.288
	c0.128,0,0.305-0.031,0.528-0.096c5.119-1.855,10.335-2.784,15.648-2.784c2.463,0,4.671,0.192,6.624,0.576
	c2.815,0.544,4.224,1.872,4.224,3.984c0,0.48-0.08,0.977-0.24,1.488c-0.833,2.208-2.801,4-5.904,5.376
	c-2.528,1.121-5.216,1.776-8.064,1.968l-1.584-2.832c1.504-2.688,3.184-5.296,5.04-7.824c0.096-0.127,0.144-0.24,0.144-0.336
	c0-0.223-0.224-0.336-0.672-0.336c-1.152,0-1.984,0.336-2.496,1.008c-1.44,2.4-2.496,4.256-3.168,5.568
	c-0.576-0.768-1.248-1.152-2.016-1.152c-0.704,0-1.313,0.288-1.824,0.864c-0.513,0.576-0.768,1.216-0.768,1.92
	c0,1.248,0.768,2.24,2.304,2.976c-2.976,6.305-4.464,10.576-4.464,12.816c0,0.864,0.256,1.296,0.768,1.296
	c0.319,0,0.48-0.224,0.48-0.672c0-0.064,0-0.176,0-0.336c-0.032-0.161-0.048-0.288-0.048-0.384c0-1.953,1.632-6.016,4.896-12.192
	c0.576,0.161,1.216,0.272,1.92,0.336c1.792,2.848,3.808,5.504,6.048,7.968c3.232,3.616,5.792,5.424,7.68,5.424
	c0.704,0,1.296-0.256,1.776-0.768c0.48-0.512,0.72-1.12,0.72-1.824c0-1.28-0.272-1.92-0.816-1.92c-0.256,0-0.384,0.144-0.384,0.432
	c0,0.128,0.04,0.368,0.12,0.72c0.08,0.352,0.12,0.64,0.12,0.864c0,0.832-0.384,1.248-1.152,1.248c-1.376,0-3.584-1.664-6.624-4.992
	c-2.368-2.624-4.208-4.976-5.52-7.056c0.8,0.032,1.584,0.017,2.352-0.048c2.688-0.192,5.12-0.784,7.296-1.776
	c2.656-1.216,4.496-2.848,5.52-4.896c0.448-0.896,0.672-1.76,0.672-2.592C94.03,6.608,92.221,4.88,88.605,4.08L88.605,4.08z
	 M74.59,17.616l0.528-0.96c0.224,0.384,0.448,0.768,0.672,1.152C75.341,17.777,74.941,17.712,74.59,17.616L74.59,17.616z
	 M72.958,16.992c-0.704-0.48-1.056-1.087-1.056-1.824c0-0.928,0.352-1.392,1.056-1.392c0.416,0,0.8,0.304,1.152,0.912
	C73.726,15.456,73.342,16.224,72.958,16.992L72.958,16.992z"/>
<path fill="#BD8F5F" d="M97.293,12.672c-0.416,0-0.776,0.152-1.08,0.456c-0.304,0.304-0.456,0.648-0.456,1.032
	c0,0.768,0.384,1.152,1.152,1.152c0.416,0,0.775-0.151,1.08-0.456c0.304-0.304,0.456-0.648,0.456-1.032
	C98.445,13.056,98.061,12.672,97.293,12.672L97.293,12.672z M101.421,22.128c-0.032,0-0.448,0.512-1.248,1.536
	c-0.928,1.185-1.776,2.112-2.544,2.784c-1.152,1.024-2.192,1.536-3.12,1.536c-0.832,0-1.248-0.576-1.248-1.728
	c0-1.664,0.799-3.744,2.4-6.24c0.127-0.192,0.192-0.367,0.192-0.528c0-0.288-0.12-0.56-0.36-0.816
	c-0.24-0.256-0.504-0.384-0.792-0.384c-0.257,0-0.48,0.144-0.672,0.432c-0.64,0.864-1.248,2.064-1.824,3.6
	c-0.641,1.664-0.96,2.976-0.96,3.936c0,1.888,0.88,2.832,2.64,2.832c2.047,0,4.527-1.936,7.44-5.808
	c0.223-0.288,0.336-0.544,0.336-0.768C101.661,22.256,101.581,22.128,101.421,22.128L101.421,22.128z"/>
<path fill="#BD8F5F" d="M113.948,22.224c-0.064,0-0.144,0.048-0.24,0.144c-1.28,1.601-2.864,2.544-4.752,2.832
	c0-0.928-0.208-2.016-0.624-3.264c-0.384-1.023-0.785-2.064-1.2-3.12c-0.096-0.288-0.144-0.56-0.144-0.816
	c0-0.703,0.304-1.288,0.912-1.752c0.607-0.463,1.279-0.696,2.016-0.696c0.736,0,1.104-0.127,1.104-0.384
	c0-0.416-0.233-0.768-0.696-1.056c-0.464-0.288-0.92-0.432-1.368-0.432c-1.152,0-2.289,0.641-3.408,1.92
	c-0.704,0.8-1.592,2.136-2.664,4.008c-1.072,1.872-1.864,3.064-2.376,3.576c-0.353-0.448-0.688-0.672-1.008-0.672
	c-0.512,0-0.768,0.464-0.768,1.392c0,1.44,0.624,2.712,1.872,3.816s2.607,1.656,4.08,1.656c0.991,0,1.879-0.288,2.664-0.864
	s1.272-1.344,1.464-2.304c2.496-0.48,4.272-1.552,5.328-3.216c0.064-0.127,0.096-0.256,0.096-0.384
	C114.236,22.353,114.14,22.224,113.948,22.224L113.948,22.224z M106.844,25.344c-1.984-0.096-3.953-0.624-5.904-1.584
	c1.248-1.504,2.719-3.6,4.416-6.288c-0.096,0.512,0.127,1.664,0.672,3.456c0.544,1.92,0.816,3.232,0.816,3.936
	C106.844,25.025,106.844,25.185,106.844,25.344L106.844,25.344z M104.061,28.032c-1.856,0-3.216-1.056-4.08-3.168l0.144-0.144
	c1.663,1.152,3.823,1.712,6.48,1.68C106.156,27.489,105.308,28.032,104.061,28.032L104.061,28.032z"/>
<path fill="#BD8F5F" d="M124.22,22.272c-0.192,0-0.4,0.144-0.624,0.432c-0.768,1.024-1.808,2-3.12,2.928
	c-1.536,1.088-2.832,1.632-3.888,1.632c-1.248,0-1.872-0.832-1.872-2.496c0-0.928,0.224-2.112,0.672-3.552
	c0.448-1.44,0.928-2.56,1.44-3.36c3.328-0.096,4.992-0.384,4.992-0.864c0-0.192-0.192-0.288-0.576-0.288c-0.224,0-0.56,0-1.008,0
	c-0.449,0.032-0.785,0.048-1.008,0.048c-0.833,0-1.472-0.016-1.92-0.048c0.864-1.503,2-3.199,3.408-5.088
	c0.832-1.056,1.471-1.872,1.92-2.448c0.031-0.064,0.048-0.112,0.048-0.144c0-0.288-0.353-0.432-1.056-0.432
	c-0.8,0-1.424,0.224-1.872,0.672c-0.608,0.544-1.376,1.697-2.304,3.456c-1.216,2.24-1.92,3.521-2.112,3.84
	c-0.417,0-1.041-0.031-1.872-0.096c-0.833-0.064-1.44-0.096-1.824-0.096c-0.32,0-0.48,0.096-0.48,0.288
	c0,0.833,1.12,1.248,3.36,1.248c-1.152,2.369-1.728,4.577-1.728,6.624c0,2.656,0.912,3.984,2.736,3.984
	c1.248,0,2.848-0.655,4.8-1.968c1.76-1.216,3.056-2.4,3.888-3.552c0.127-0.192,0.192-0.352,0.192-0.48
	C124.412,22.353,124.347,22.272,124.22,22.272L124.22,22.272z"/>
<path fill="#BD8F5F" d="M134.827,22.512c0.064,0-0.368,0.416-1.296,1.248c-0.928,0.833-1.92,1.248-2.976,1.248
	c-0.608,0-1.152-0.144-1.632-0.432c1.344-2.656,2.016-4.848,2.016-6.576c0-0.799-0.176-1.567-0.528-2.304
	c-0.448-0.864-1.04-1.296-1.776-1.296c-1.121,0-2.064,0.544-2.832,1.632c-0.768,1.088-1.152,2.208-1.152,3.36
	c0,0.353,0.031,0.704,0.096,1.056c-1.601,2.464-2.4,4.608-2.4,6.432c0,1.312,0.56,1.968,1.68,1.968c1.567,0,3.088-1.167,4.56-3.504
	c0.543,0.32,1.135,0.48,1.776,0.48c0.864,0,1.752-0.271,2.664-0.816c0.912-0.544,1.591-1.2,2.04-1.968
	c0.063-0.063,0.096-0.127,0.096-0.192C135.163,22.625,135.051,22.512,134.827,22.512L134.827,22.512z M128.299,24.144
	c-1.056-0.768-1.792-1.759-2.208-2.976c0.64-1.216,1.248-1.824,1.824-1.824c0.319,0,0.48-0.048,0.48-0.144
	c0-0.064-0.017-0.144-0.048-0.24c0-0.128,0-0.208,0-0.24c-0.224-0.319-0.576-0.48-1.056-0.48c-0.513,0-1.025,0.305-1.536,0.912
	c-0.032-0.832,0.112-1.6,0.432-2.304c0.416-0.896,0.991-1.344,1.728-1.344c0.511,0,0.928,0.512,1.248,1.536
	c0.224,0.737,0.336,1.457,0.336,2.16C129.5,20.48,129.099,22.128,128.299,24.144L128.299,24.144z M126.571,26.544
	c-0.736,0.768-1.328,1.152-1.776,1.152c-0.48,0-0.72-0.319-0.72-0.96c0-0.896,0.48-2.352,1.44-4.368
	c0.544,0.929,1.344,1.745,2.4,2.448C127.659,25.361,127.211,25.937,126.571,26.544L126.571,26.544z"/>
<path fill="#BD8F5F" d="M149.371,22.032c-0.032,0-0.448,0.512-1.248,1.536c-0.992,1.248-1.856,2.208-2.592,2.88
	c-1.152,1.024-2.177,1.536-3.072,1.536c-1.056,0-1.584-0.56-1.584-1.68c0-1.184,0.56-2.863,1.68-5.04
	c1.12-2.176,1.68-3.248,1.68-3.216c0-0.32-0.113-0.6-0.336-0.84c-0.225-0.24-0.48-0.36-0.768-0.36c-0.224,0-0.608,0.312-1.152,0.936
	c-0.544,0.624-1.104,0.936-1.68,0.936c-0.833,0-1.392-0.496-1.68-1.488c1.312-1.536,1.968-2.704,1.968-3.504
	c0-0.416-0.113-0.847-0.336-1.296c-0.257-0.576-0.561-0.864-0.912-0.864c-0.544,0-0.977,0.608-1.296,1.824
	c-0.288,0.96-0.432,1.809-0.432,2.544c0,0.417,0.031,0.768,0.096,1.056c-1.28,2.688-2.544,4.88-3.792,6.576
	c-0.16,0.224-0.24,0.4-0.24,0.528c0,0.128,0.063,0.192,0.192,0.192c0.384,0,1.168-0.928,2.352-2.784
	c0.96-1.472,1.615-2.608,1.968-3.408c0,0.449,0.288,0.848,0.864,1.2c0.48,0.32,0.976,0.48,1.488,0.48
	c0.224,0,0.432-0.032,0.624-0.096c-1.344,2.208-2.016,4.304-2.016,6.288c0,2.08,0.896,3.12,2.688,3.12
	c2.463,0,4.944-1.984,7.44-5.952c0.192-0.288,0.288-0.56,0.288-0.816C149.563,22.128,149.498,22.032,149.371,22.032L149.371,22.032z
	"/>
<path fill="#BD8F5F" d="M163.003,22.416c-0.096,0-0.792,0.776-2.088,2.328c-1.296,1.553-2.296,2.328-3,2.328
	c-0.992,0-1.488-1.152-1.488-3.456c0-2.496,0.384-4.368,1.152-5.616c0.096-0.16,0.256-0.271,0.48-0.336
	c0.224-0.063,0.336-0.111,0.336-0.144c0-0.063-0.048-0.175-0.144-0.336c-0.513-0.799-1.344-1.2-2.496-1.2
	c-0.513,0-1.041,0.112-1.584,0.336c-1.505,0.512-3.057,1.944-4.656,4.296c-1.601,2.352-2.4,4.36-2.4,6.024
	c0,1.088,0.496,1.632,1.488,1.632c1.664,0,3.568-1.904,5.712-5.712c-0.064,0.517-0.096,1.001-0.096,1.453
	c0,2.775,0.976,4.163,2.928,4.163c0.576,0,1.152-0.145,1.728-0.436c1.248-0.645,2.576-2.113,3.984-4.404
	c0.192-0.291,0.288-0.516,0.288-0.678C163.146,22.497,163.099,22.416,163.003,22.416L163.003,22.416z M152.155,24.624
	c-1.121,1.472-2.033,2.208-2.736,2.208c-0.449,0-0.672-0.336-0.672-1.008c0-1.504,0.976-3.439,2.928-5.808
	c1.375-1.632,2.704-2.448,3.984-2.448c0.16,0,0.304,0.017,0.432,0.048C155.035,20.304,153.722,22.641,152.155,24.624L152.155,24.624
	z"/>
<path fill="#BD8F5F" d="M176.49,22.032c-0.096,0-0.48,0.464-1.152,1.392c-0.833,1.152-1.584,2.016-2.256,2.592
	c-1.024,0.929-1.984,1.392-2.88,1.392c-1.152,0-1.728-0.607-1.728-1.824c0-1.728,0.896-4.063,2.688-7.008
	c0.127-0.224,0.192-0.416,0.192-0.576c0-0.735-0.368-1.104-1.104-1.104c-0.256,0-0.512,0.113-0.768,0.336
	c-1.313,1.408-2.304,2.496-2.976,3.264c-2.016,2.208-3.216,3.569-3.6,4.08c1.504-4.601,2.256-7.064,2.256-7.388
	c0-0.194-0.113-0.292-0.336-0.292c-0.288,0-0.608,0.114-0.96,0.339s-0.576,0.451-0.672,0.677c-0.224,1-0.384,1.759-0.48,2.274
	c-0.736,3.034-1.44,5.373-2.112,7.019c-0.064,0.098-0.096,0.227-0.096,0.387c0,0.581,0.144,0.872,0.432,0.872
	c0.096,0,0.24-0.144,0.432-0.432c2.335-3.552,4.624-6.336,6.864-8.352c-0.928,1.551-1.392,3.34-1.392,5.366
	c0,2.279,0.912,3.418,2.736,3.418c2.335,0,4.591-1.781,6.768-5.345c0.192-0.315,0.288-0.583,0.288-0.804
	C176.634,22.127,176.586,22.032,176.49,22.032L176.49,22.032z"/>
<path fill="#BD8F5F" d="M186.619,22.272c-0.192,0-0.401,0.144-0.624,0.432c-0.768,1.024-1.809,2-3.12,2.928
	c-1.536,1.088-2.832,1.632-3.888,1.632c-1.248,0-1.872-0.832-1.872-2.496c0-0.928,0.224-2.112,0.672-3.552
	c0.448-1.44,0.928-2.56,1.44-3.36c3.328-0.096,4.992-0.384,4.992-0.864c0-0.192-0.192-0.288-0.576-0.288c-0.225,0-0.561,0-1.008,0
	c-0.448,0.032-0.784,0.048-1.008,0.048c-0.833,0-1.472-0.016-1.92-0.048c0.864-1.503,2-3.199,3.408-5.088
	c0.832-1.056,1.472-1.872,1.92-2.448c0.032-0.064,0.048-0.112,0.048-0.144c0-0.288-0.353-0.432-1.056-0.432
	c-0.8,0-1.424,0.224-1.872,0.672c-0.608,0.544-1.376,1.697-2.304,3.456c-1.217,2.24-1.92,3.521-2.112,3.84
	c-0.416,0-1.04-0.031-1.872-0.096c-0.832-0.064-1.44-0.096-1.824-0.096c-0.32,0-0.48,0.096-0.48,0.288
	c0,0.833,1.12,1.248,3.36,1.248c-1.152,2.369-1.728,4.577-1.728,6.624c0,2.656,0.912,3.984,2.736,3.984
	c1.248,0,2.848-0.655,4.8-1.968c1.759-1.216,3.056-2.4,3.888-3.552c0.127-0.192,0.192-0.352,0.192-0.48
	C186.811,22.353,186.746,22.272,186.619,22.272L186.619,22.272z"/>
<path fill="#BD8F5F" d="M196.026,22.656c-0.224,0-0.448,0.161-0.672,0.48c-0.864,1.024-1.904,1.937-3.12,2.736
	c-1.408,0.929-2.672,1.392-3.792,1.392c-1.184,0-1.776-0.655-1.776-1.968c0-0.544,0.112-1.216,0.336-2.016
	c1.12-0.416,2.352-1.248,3.696-2.496c1.503-1.408,2.256-2.608,2.256-3.6c0-0.319-0.12-0.624-0.36-0.912
	c-0.24-0.288-0.521-0.432-0.84-0.432c-1.632,0-3.216,1.056-4.752,3.168c-1.44,1.984-2.16,3.809-2.16,5.472
	c0,2.528,1.008,3.792,3.024,3.792c1.408,0,2.959-0.56,4.656-1.68c1.6-1.056,2.8-2.208,3.6-3.456
	c0.063-0.127,0.096-0.224,0.096-0.288C196.218,22.721,196.153,22.656,196.026,22.656L196.026,22.656z M189.93,20.448
	c-0.896,0.896-1.76,1.52-2.592,1.872c0.192-0.704,0.688-1.68,1.488-2.928c0.928-1.471,1.632-2.208,2.112-2.208
	c0.384,0,0.576,0.192,0.576,0.576C191.514,18.528,190.986,19.424,189.93,20.448L189.93,20.448z"/>
</svg>
