<?xml version="1.0" encoding="utf-8"?>
<!-- Generator: Adobe Illustrator 16.0.0, SVG Export Plug-In . SVG Version: 6.00 Build 0)  -->
<!DOCTYPE svg PUBLIC "-//W3C//DTD SVG 1.1//EN" "http://www.w3.org/Graphics/SVG/1.1/DTD/svg11.dtd">
<svg version="1.1" id="Layer_1" xmlns="http://www.w3.org/2000/svg" xmlns:xlink="http://www.w3.org/1999/xlink" x="0px" y="0px"
	 width="197px" height="111px" viewBox="0 0 197 111" enable-background="new 0 0 197 111" xml:space="preserve">
<g id="Logo_Element">
	<g>
		<path fill="#FFFFFF" d="M92.173,35.034l-0.01-0.005c-0.114-0.052-1.193-0.559-2.255-1.324c-0.531-0.382-1.056-0.829-1.451-1.301
			c-0.398-0.474-0.656-0.964-0.709-1.425c-0.005-0.046-0.009-0.107-0.009-0.181c0-0.316,0.067-0.839,0.194-1.479
			c0.446-2.258,1.598-6.023,2.773-9.354c0.587-1.667,1.181-3.228,1.693-4.44c0.256-0.605,0.492-1.124,0.693-1.522
			c0.101-0.197,0.193-0.366,0.272-0.496c0.079-0.13,0.147-0.224,0.184-0.264c0.173-0.19,0.344-0.325,0.498-0.408
			c0.154-0.082,0.287-0.114,0.402-0.114c0.127,0.001,0.24,0.035,0.368,0.127c0.189,0.135,0.404,0.427,0.564,0.918
			c0.16,0.488,0.264,1.166,0.263,2.031c0,0.426,0.024,1.283,0.066,2.486c0.147,4.206,0.514,12.574,0.843,20.422
			c0.166,3.923,0.321,7.716,0.435,10.79c0.115,3.073,0.188,5.436,0.188,6.475c0,0.144-0.001,0.262-0.003,0.35
			c-0.003,0.085-0.009,0.148-0.009,0.148c-0.086,0.585-0.447,1.196-0.918,1.641c-0.234,0.223-0.494,0.404-0.746,0.526
			c-0.253,0.121-0.497,0.182-0.7,0.181c-0.499,0.002-1.167-0.139-1.725-0.549c-0.281-0.206-0.539-0.479-0.752-0.849
			c-0.212-0.37-0.38-0.84-0.463-1.442c-0.221-1.6-0.584-5.436-0.584-8.64c0-0.974,0.034-1.89,0.113-2.66
			c0.077-0.77,0.208-1.4,0.367-1.768c0.098-0.232,0.3-0.544,0.589-0.896c0.507-0.619,1.276-1.367,2.202-2.183
			c2.782-2.452,6.973-5.521,10.023-8.108c1.614-1.369,3.563-2.991,5.122-4.541c0.78-0.776,1.464-1.533,1.965-2.247
			c0.25-0.357,0.455-0.704,0.603-1.045c0.146-0.342,0.238-0.679,0.239-1.019l-0.002-0.08v-0.007v0.006
			c-0.064-1.417-0.102-4.184-0.146-6.724c-0.022-1.271-0.048-2.486-0.079-3.455c-0.016-0.484-0.033-0.907-0.054-1.246
			c-0.021-0.342-0.041-0.589-0.074-0.77c-0.05-0.276-0.182-0.521-0.377-0.688c-0.194-0.168-0.44-0.249-0.677-0.247
			c-0.327,0-0.645,0.146-0.878,0.4c-0.235,0.255-0.378,0.622-0.376,1.042c0,0.039,0.001,0.08,0.004,0.121v0.009v-0.009
			c0.048,0.784,0.197,4.666,0.197,7.226c0,0.604-0.009,1.136-0.028,1.528c-0.009,0.197-0.021,0.359-0.036,0.473
			c-0.006,0.056-0.014,0.1-0.02,0.124l-0.004,0.02l0.182,0.058l-0.169-0.088l-0.013,0.03l0.182,0.058l-0.169-0.088
			c-0.039,0.077-0.083,0.132-0.101,0.146l-0.006,0.006l0.091,0.13v-0.152c-0.059,0-0.091,0.021-0.091,0.022l0.091,0.13v-0.152v0.182
			l0.12-0.145c-0.006-0.008-0.063-0.039-0.12-0.037v0.182l0.12-0.145l-0.015,0.018l0.017-0.016l-0.002-0.002l-0.015,0.018
			l0.017-0.016c-0.006-0.002-0.063-0.079-0.113-0.237c-0.054-0.158-0.107-0.396-0.149-0.714c-0.146-1.121-0.174-2.591-0.173-4.03
			c0-0.718,0.006-1.43,0.006-2.092c0-0.897-0.011-1.701-0.067-2.323c-0.029-0.313-0.067-0.578-0.134-0.808
			c-0.034-0.115-0.073-0.222-0.138-0.329c-0.064-0.104-0.16-0.222-0.323-0.294c-0.194-0.083-0.388-0.135-0.591-0.136
			c-0.186-0.002-0.381,0.051-0.542,0.157c-0.12,0.079-0.219,0.183-0.295,0.298c-0.114,0.173-0.183,0.367-0.227,0.579
			c-0.044,0.213-0.063,0.445-0.063,0.702c0,0.205,0.01,0.617,0.023,1.17c0.043,1.655,0.129,4.546,0.129,6.383
			c0,0.46-0.005,0.853-0.018,1.138c-0.006,0.143-0.014,0.259-0.022,0.335c-0.005,0.037-0.009,0.066-0.012,0.078l-0.001,0.005
			l0.23,0.056l-0.21-0.106c-0.021,0.042-0.02,0.051-0.021,0.051l0.23,0.056l-0.21-0.106l-0.038,0.047l-0.008,0.004l0.008,0.024
			v-0.024h-0.008l0.008,0.024v-0.024v0.054l0.022-0.049l-0.022-0.005v0.054l0.022-0.049l-0.013,0.028l0.018-0.026l-0.005-0.002
			l-0.013,0.028l0.018-0.026l-0.007-0.006c-0.016-0.018-0.062-0.093-0.08-0.264c-0.031-0.291-0.07-0.99-0.109-1.86
			c-0.059-1.309-0.119-3.024-0.173-4.485c-0.027-0.73-0.052-1.397-0.074-1.918c-0.012-0.261-0.021-0.485-0.03-0.664
			c-0.011-0.181-0.019-0.311-0.028-0.4c-0.036-0.342-0.122-0.633-0.279-0.872c-0.079-0.118-0.179-0.226-0.305-0.306
			s-0.281-0.13-0.439-0.129c-0.255,0.001-0.48,0.121-0.649,0.283c-0.172,0.165-0.307,0.377-0.422,0.64
			c-0.06,0.142-0.083,0.272-0.108,0.438c-0.069,0.481-0.092,1.225-0.092,2.143c0,1.598,0.074,3.69,0.148,5.523
			c0.037,0.916,0.074,1.767,0.102,2.454c0.028,0.687,0.046,1.217,0.046,1.47c0.004,1.316,0.511,2.688,1.202,4.119
			c0.693,1.43,1.584,2.92,2.404,4.438c1.718,3.179,3.045,6.872,3.332,11.905c0.143,2.542,0.232,5.306,0.296,7.644
			c0.063,2.34,0.1,4.247,0.136,5.1c0.002,0.031,0.002,0.063,0.002,0.096c0.004,0.675-0.311,1.436-0.783,2
			c-0.234,0.284-0.506,0.518-0.78,0.675c-0.275,0.158-0.549,0.238-0.801,0.237h-0.052h0.002c-0.389-0.017-1.122-0.061-1.804-0.612
			c-0.342-0.277-0.679-0.687-0.956-1.323c-0.276-0.637-0.488-1.502-0.558-2.674c-0.134-2.249-0.32-6.146-0.32-9.588
			c0-1.201,0.023-2.348,0.078-3.346c0.032-0.642,0.338-1.325,0.738-1.918c0.397-0.593,0.884-1.093,1.221-1.38
			c7.317-6.257,9.854-8.417,13.266-11.188c0.816-0.661,1.312-1.556,1.592-2.565c0.281-1.012,0.362-2.147,0.363-3.365
			c0-1.602-0.143-3.35-0.199-5.137c-0.072-2.259-0.072-5.171-0.227-7.764c-0.077-1.298-0.192-2.515-0.379-3.543
			c-0.094-0.514-0.205-0.981-0.343-1.392S122,2.318,121.788,2.028c-0.844-1.146-2.449-2.027-4.547-2.028
			c-1.768,0-3.876,0.629-6.179,2.235c-4.925,3.434-11.531,8.668-12.474,9.417c-0.197,0.157-0.23,0.443-0.074,0.642
			c0.156,0.197,0.442,0.23,0.639,0.074c0.935-0.743,7.54-5.976,12.428-9.383c2.183-1.522,4.109-2.071,5.66-2.072
			c1.842,0,3.17,0.776,3.814,1.657c0.13,0.176,0.265,0.451,0.382,0.804c0.207,0.617,0.367,1.465,0.482,2.44
			c0.352,2.932,0.324,7.004,0.418,9.996c0.059,1.815,0.199,3.56,0.199,5.107c0.001,1.177-0.083,2.237-0.33,3.119
			c-0.248,0.883-0.646,1.579-1.288,2.102c-3.422,2.78-5.966,4.947-13.283,11.203c-0.397,0.34-0.928,0.885-1.384,1.563
			c-0.455,0.679-0.842,1.491-0.894,2.379c-0.056,1.022-0.079,2.183-0.079,3.396c0,3.475,0.188,7.38,0.322,9.643
			c0.074,1.254,0.303,2.227,0.631,2.983c0.49,1.138,1.223,1.782,1.913,2.109c0.688,0.329,1.328,0.359,1.642,0.374h0.001
			c0.029,0.002,0.059,0.002,0.088,0.002c0.443,0,0.868-0.139,1.252-0.358c0.575-0.332,1.07-0.85,1.432-1.455
			c0.359-0.604,0.589-1.303,0.59-2.013c0-0.045-0.001-0.09-0.003-0.135c-0.035-0.827-0.072-2.744-0.135-5.085
			c-0.063-2.343-0.154-5.113-0.299-7.672c-0.291-5.168-1.67-9.023-3.439-12.289c-0.833-1.538-1.718-3.022-2.386-4.401
			c-0.671-1.377-1.113-2.647-1.109-3.719c-0.001-0.289-0.02-0.815-0.047-1.507c-0.084-2.069-0.251-5.584-0.251-7.94
			c0-0.599,0.012-1.122,0.036-1.521c0.013-0.198,0.028-0.366,0.047-0.49c0.009-0.063,0.018-0.113,0.027-0.149l0.011-0.042
			l0.004-0.011l0.001-0.002c0.078-0.182,0.16-0.293,0.213-0.342l0.048-0.036l0,0l-0.023-0.066v0.069l0.023-0.003l-0.023-0.066v0.069
			v-0.085l-0.045,0.074l0.045,0.011v-0.085l-0.045,0.074l0.003,0.002c0.012,0.011,0.048,0.054,0.081,0.137
			c0.034,0.084,0.064,0.205,0.081,0.36c0.007,0.073,0.02,0.272,0.032,0.544c0.047,0.955,0.111,2.867,0.18,4.678
			c0.034,0.906,0.069,1.786,0.104,2.513c0.034,0.728,0.066,1.292,0.099,1.597c0.033,0.303,0.126,0.563,0.297,0.763
			c0.168,0.201,0.424,0.318,0.667,0.315c0.375-0.003,0.689-0.231,0.852-0.555c0.039-0.085,0.047-0.132,0.059-0.185
			c0.018-0.088,0.027-0.179,0.036-0.289c0.024-0.329,0.033-0.827,0.033-1.44c0-1.242-0.038-2.939-0.076-4.424
			c-0.02-0.743-0.038-1.432-0.053-1.982c-0.014-0.55-0.023-0.966-0.023-1.146c-0.002-0.375,0.058-0.636,0.116-0.741
			c0.029-0.055,0.049-0.068,0.056-0.073c0.007-0.004,0.008-0.008,0.045-0.009c0.039,0,0.119,0.013,0.231,0.062l0.1-0.234
			l-0.178,0.183c0.014,0.015,0.04,0.035,0.078,0.052l0.1-0.234l-0.178,0.183l0.106-0.108l-0.12,0.094l0.014,0.015l0.106-0.108
			l-0.12,0.094l0.037-0.029l-0.039,0.026l0.002,0.003l0.037-0.029l-0.039,0.026c0.006,0.004,0.053,0.116,0.082,0.286
			c0.05,0.256,0.082,0.644,0.101,1.105c0.019,0.464,0.023,1.007,0.023,1.593c0,0.657-0.006,1.369-0.006,2.092
			c0,1.452,0.024,2.944,0.181,4.149c0.068,0.512,0.161,0.878,0.301,1.161c0.071,0.143,0.156,0.267,0.277,0.369
			c0.119,0.104,0.291,0.178,0.464,0.176c0.114,0.001,0.22-0.029,0.308-0.07c0.133-0.064,0.23-0.152,0.313-0.246
			c0.081-0.094,0.146-0.197,0.203-0.307c0.043-0.088,0.057-0.147,0.072-0.215c0.023-0.112,0.039-0.236,0.052-0.388
			c0.039-0.448,0.052-1.126,0.052-1.932c0-2.595-0.148-6.461-0.198-7.282v-0.001l-0.002-0.063c0.001-0.221,0.066-0.347,0.137-0.425
			s0.153-0.105,0.208-0.105c0.041,0.001,0.063,0.011,0.086,0.028c0.021,0.02,0.054,0.056,0.074,0.162
			c0.018,0.09,0.041,0.334,0.061,0.657c0.067,1.145,0.109,3.375,0.147,5.623c0.038,2.25,0.074,4.521,0.13,5.788l0.001,0.007
			l-0.001-0.008l0.002,0.041c0.001,0.168-0.05,0.393-0.163,0.655c-0.198,0.461-0.585,1.029-1.101,1.639
			c-0.771,0.917-1.828,1.937-2.955,2.945c-1.128,1.011-2.325,2.015-3.388,2.915c-2.295,1.946-5.276,4.193-7.815,6.254
			c-1.271,1.031-2.431,2.015-3.347,2.9c-0.458,0.443-0.855,0.861-1.178,1.253c-0.321,0.394-0.569,0.757-0.723,1.117
			c-0.223,0.525-0.35,1.215-0.436,2.033c-0.084,0.817-0.117,1.759-0.118,2.754c0.001,3.272,0.366,7.114,0.593,8.765
			c0.097,0.704,0.299,1.292,0.576,1.773c0.415,0.724,0.996,1.196,1.585,1.477c0.591,0.281,1.188,0.378,1.68,0.378
			c0.375,0,0.744-0.104,1.093-0.271c0.524-0.253,1.008-0.653,1.397-1.145c0.386-0.491,0.677-1.075,0.773-1.709
			c0.012-0.08,0.015-0.153,0.019-0.257c0.003-0.103,0.004-0.228,0.004-0.378c0-1.226-0.096-4.13-0.239-7.869
			c-0.216-5.606-0.539-13.07-0.809-19.442c-0.134-3.186-0.256-6.098-0.343-8.366c-0.088-2.267-0.141-3.899-0.141-4.495
			c-0.002-1.249-0.192-2.196-0.541-2.878c-0.175-0.339-0.395-0.615-0.662-0.811c-0.266-0.195-0.583-0.303-0.902-0.301
			c-0.288,0-0.571,0.082-0.833,0.224c-0.263,0.143-0.509,0.345-0.739,0.597c-0.115,0.129-0.216,0.282-0.33,0.473
			c-0.209,0.356-0.447,0.843-0.712,1.438c-0.925,2.082-2.167,5.492-3.185,8.705c-0.509,1.606-0.96,3.161-1.287,4.477
			c-0.164,0.657-0.295,1.255-0.387,1.772c-0.092,0.519-0.146,0.953-0.146,1.307c0,0.102,0.004,0.197,0.016,0.289
			c0.09,0.738,0.475,1.389,0.961,1.958c0.735,0.853,1.726,1.545,2.537,2.037c0.811,0.492,1.444,0.778,1.456,0.784
			c0.229,0.103,0.498,0,0.601-0.229C92.504,35.407,92.402,35.138,92.173,35.034z"/>
		<path fill="#FFFFFF" d="M87.242,20.093c-0.364,0.314-3.558,3.097-6.843,5.975c-1.642,1.439-3.307,2.9-4.651,4.089
			c-0.672,0.595-1.264,1.119-1.733,1.539c-0.47,0.421-0.814,0.734-1.002,0.912c-0.54,0.514-1.021,1.18-1.372,1.949
			c-0.35,0.77-0.568,1.646-0.568,2.573c-0.001,0.908,0.212,1.865,0.709,2.802s1.276,1.848,2.394,2.684
			c4.342,3.243,13.935,9.914,13.938,9.917c0.207,0.144,0.49,0.091,0.633-0.116s0.091-0.491-0.115-0.635
			c-0.001,0-0.15-0.104-0.421-0.293c-1.894-1.32-9.716-6.785-13.492-9.606c-1.026-0.767-1.707-1.576-2.134-2.38
			c-0.427-0.805-0.602-1.605-0.603-2.372c0-0.783,0.185-1.531,0.486-2.194c0.301-0.662,0.719-1.236,1.169-1.665
			c0.17-0.162,0.515-0.476,0.982-0.893c3.27-2.928,12.587-11.053,13.214-11.593c0.19-0.164,0.212-0.452,0.049-0.644
			S87.433,19.928,87.242,20.093z"/>
		<path fill="#FFFFFF" d="M99.69,59.879c0.001,0,3.141,1.844,6.517,3.782c1.688,0.97,3.435,1.962,4.879,2.761
			c0.723,0.399,1.369,0.75,1.897,1.025c0.53,0.277,0.933,0.476,1.201,0.583c0.323,0.128,0.738,0.24,1.221,0.324
			c0.482,0.082,1.031,0.136,1.612,0.136c1.336-0.002,2.854-0.275,4.079-1.167c0.61-0.445,1.141-1.05,1.509-1.83
			c0.37-0.78,0.578-1.731,0.578-2.871c0-2.741-0.029-9.597-0.064-15.791c-0.019-3.097-0.037-6.028-0.056-8.198
			c-0.01-1.085-0.019-1.979-0.027-2.609c-0.004-0.315-0.008-0.563-0.012-0.738c-0.002-0.087-0.004-0.156-0.006-0.208l-0.004-0.068
			l-0.003-0.034l-0.003-0.027c-0.002-0.013-0.005-0.026-0.015-0.063c-0.071-0.242-0.324-0.38-0.564-0.308
			c-0.241,0.071-0.378,0.325-0.307,0.567l0.412-0.123l-0.425,0.066c0.002,0.011,0.003,0.022,0.013,0.057l0.412-0.123l-0.425,0.066
			l0.284-0.044l-0.287,0.023l0.003,0.021l0.284-0.044l-0.287,0.023c0,0.002,0.003,0.044,0.004,0.101
			c0.015,0.458,0.032,2.088,0.05,4.339c0.055,6.76,0.113,19.184,0.113,23.115c0,1.029-0.187,1.839-0.49,2.479
			c-0.455,0.959-1.173,1.562-2.025,1.946c-0.85,0.384-1.832,0.53-2.741,0.529c-0.525,0-1.026-0.048-1.458-0.122
			c-0.432-0.075-0.797-0.177-1.04-0.273c-0.2-0.079-0.601-0.274-1.117-0.545c-1.814-0.947-5.134-2.838-7.992-4.486
			c-1.43-0.825-2.744-1.59-3.702-2.148c-0.479-0.28-0.869-0.508-1.139-0.666s-0.42-0.246-0.42-0.246
			c-0.216-0.127-0.495-0.054-0.622,0.164S99.474,59.751,99.69,59.879L99.69,59.879z"/>
	</g>
</g>
<path fill="#FFFFFF" d="M25.927,80.993c-4.209,0-8.482,1.34-12.819,4.017c-4.048,2.453-7.341,5.535-9.879,9.244
	C1.077,97.385,0,100.272,0,102.918c0,2.227,0.851,3.904,2.555,5.033c1.445,0.969,3.341,1.452,5.686,1.452
	c2.859,0,6.056-0.84,9.59-2.517c3.212-1.516,5.991-3.355,8.337-5.518c0.128-0.128,0.193-0.273,0.193-0.436
	c0-0.419-0.193-0.63-0.579-0.63c-0.128,0-0.257,0.05-0.385,0.146c-5.494,4.582-11.164,6.873-17.012,6.873
	c-1.831,0-3.277-0.42-4.337-1.259c-1.189-0.936-1.783-2.291-1.783-4.066c0-2.838,1.301-5.808,3.903-8.905
	c2.345-2.742,5.285-5.138,8.819-7.187c3.534-2.049,6.682-3.219,9.446-3.51c0.513-0.063,1.043-0.097,1.59-0.097
	c2.667,0,4,0.792,4,2.371c0,1.615-1.077,3.244-3.229,4.89c-2.153,1.645-4.081,2.468-5.783,2.468c-1.639,0-2.458-0.63-2.458-1.888
	c0-0.097,0.016-0.242,0.048-0.436c0.031-0.193,0.048-0.339,0.048-0.436c0-0.29-0.113-0.436-0.337-0.436
	c-0.579,0-0.868,0.646-0.868,1.937c0,1.807,1.172,2.71,3.518,2.71c2.281,0,4.545-0.888,6.795-2.662
	c2.41-1.839,3.614-3.854,3.614-6.05C31.373,82.252,29.557,80.993,25.927,80.993L25.927,80.993z"/>
<path fill="#FFFFFF" d="M42.263,101.079c-0.064,0-0.499,0.517-1.301,1.549c-0.964,1.259-1.831,2.227-2.602,2.903
	c-1.157,1.033-2.186,1.549-3.084,1.549c-1.06,0-1.59-0.563-1.59-1.693c0-1.193,0.57-2.887,1.711-5.083
	c1.14-2.193,1.71-3.273,1.71-3.241c0-0.323-0.121-0.605-0.362-0.848c-0.241-0.241-0.506-0.363-0.795-0.363
	c-0.257,0-0.498,0.13-0.723,0.388c-0.451,0.807-0.788,1.436-1.012,1.887c-2.667,4.712-4.515,7.067-5.542,7.067
	c-0.611,0-0.916-0.517-0.916-1.55c0-0.773,0.41-1.879,1.229-3.315c0.819-1.435,1.229-2.169,1.229-2.202
	c0-0.257-0.24-0.386-0.723-0.386c-0.867,0-1.671,0.838-2.409,2.517c-0.675,1.451-1.012,2.694-1.012,3.726
	c0,1.808,0.53,2.71,1.59,2.71c0.835,0,1.783-0.628,2.843-1.887c0.321-0.388,1.043-1.404,2.168-3.049
	c-0.482,1.517-0.723,2.533-0.723,3.049c0,2.259,0.899,3.388,2.698,3.388c1.35,0,2.795-0.71,4.338-2.129
	c1.188-1.097,2.232-2.388,3.132-3.872c0.193-0.322,0.29-0.597,0.29-0.823C42.408,101.177,42.36,101.079,42.263,101.079
	L42.263,101.079z"/>
<path fill="#FFFFFF" d="M57.973,79.518c-0.354-0.436-0.723-0.654-1.108-0.654c-1.189,0-2.667,0.969-4.434,2.905
	c-2.474,2.742-4.803,5.985-6.988,9.728c-2.667,4.582-4,8.227-4,10.938c0,3.969,1.204,5.952,3.614,5.952
	c1.413,0,3.036-0.71,4.867-2.129c1.446-1.098,2.73-2.388,3.855-3.872c0.097-0.128,0.145-0.258,0.145-0.388
	c0-0.225-0.081-0.338-0.241-0.338c-0.129,0-0.257,0.08-0.386,0.241c-3.245,3.646-5.751,5.47-7.518,5.47
	c-1.767,0-2.65-1.759-2.65-5.276c2.827-2.646,5.879-6.017,9.157-10.115c4.145-5.258,6.216-8.985,6.216-11.181
	C58.503,80.381,58.326,79.952,57.973,79.518z M55.997,83.074c-0.643,1.936-2.506,5.066-5.59,9.39
	c-2.988,4.131-5.366,6.97-7.133,8.518c0.417-2.063,1.703-5.178,3.856-9.341c1.958-3.807,3.71-6.759,5.253-8.856
	c1.349-1.808,2.489-2.71,3.421-2.71c0.417,0,0.626,0.307,0.626,0.919C56.431,81.478,56.286,82.172,55.997,83.074L55.997,83.074z"/>
<path fill="#FFFFFF" d="M58.262,91.641c-0.418,0-0.779,0.153-1.084,0.461c-0.305,0.307-0.458,0.652-0.458,1.04
	c0,0.773,0.386,1.162,1.157,1.162c0.417,0,0.779-0.154,1.084-0.46c0.305-0.307,0.458-0.654,0.458-1.041
	C59.418,92.028,59.033,91.641,58.262,91.641L58.262,91.641z M62.406,101.177c-0.032,0-0.45,0.516-1.253,1.548
	c-0.932,1.194-1.783,2.13-2.554,2.807c-1.157,1.033-2.201,1.549-3.132,1.549c-0.835,0-1.253-0.58-1.253-1.742
	c0-1.678,0.802-3.775,2.41-6.293c0.128-0.192,0.192-0.37,0.192-0.531c0-0.29-0.12-0.564-0.361-0.823
	c-0.241-0.258-0.506-0.387-0.795-0.387c-0.258,0-0.482,0.145-0.675,0.437c-0.643,0.87-1.252,2.08-1.832,3.629
	c-0.643,1.678-0.963,3.002-0.963,3.969c0,1.904,0.883,2.855,2.65,2.855c2.056,0,4.545-1.952,7.47-5.856
	c0.224-0.29,0.337-0.548,0.337-0.774C62.647,101.305,62.567,101.177,62.406,101.177L62.406,101.177z"/>
<path fill="#FFFFFF" d="M88.958,82.978c-3.084-0.678-6.297-1.017-9.638-1.017c-4.723,0-8.836,0.581-12.337,1.743
	c-0.45,0.161-0.899,0.451-1.35,0.87c-0.546,0.484-0.819,0.92-0.819,1.308c0,0.193,0.112,0.29,0.337,0.29
	c0.129,0,0.306-0.031,0.53-0.097c5.14-1.871,10.377-2.808,15.71-2.808c2.473,0,4.69,0.194,6.65,0.581
	c2.827,0.549,4.241,1.888,4.241,4.017c0,0.485-0.081,0.985-0.241,1.501c-0.835,2.227-2.812,4.033-5.928,5.421
	c-2.539,1.129-5.237,1.791-8.096,1.983l-1.591-2.855c1.51-2.71,3.197-5.339,5.061-7.889c0.097-0.128,0.145-0.241,0.145-0.339
	c0-0.225-0.225-0.339-0.674-0.339c-1.157,0-1.993,0.339-2.506,1.018c-1.446,2.419-2.506,4.291-3.181,5.613
	c-0.578-0.774-1.253-1.161-2.024-1.161c-0.707,0-1.318,0.29-1.831,0.872c-0.515,0.58-0.771,1.226-0.771,1.936
	c0,1.258,0.771,2.259,2.313,3c-2.987,6.357-4.481,10.663-4.481,12.922c0,0.873,0.257,1.308,0.771,1.308
	c0.321,0,0.482-0.227,0.482-0.678c0-0.064,0-0.178,0-0.338c-0.032-0.163-0.048-0.292-0.048-0.389c0-1.968,1.638-6.065,4.916-12.292
	c0.578,0.161,1.221,0.273,1.927,0.339c1.799,2.871,3.823,5.549,6.072,8.033c3.245,3.646,5.814,5.469,7.711,5.469
	c0.706,0,1.301-0.259,1.783-0.774s0.723-1.129,0.723-1.839c0-1.29-0.274-1.936-0.82-1.936c-0.257,0-0.385,0.145-0.385,0.436
	c0,0.129,0.04,0.371,0.121,0.726c0.08,0.355,0.121,0.646,0.121,0.872c0,0.838-0.386,1.258-1.157,1.258
	c-1.381,0-3.598-1.678-6.65-5.032c-2.378-2.646-4.225-5.019-5.542-7.116c0.803,0.033,1.591,0.017,2.362-0.048
	c2.699-0.194,5.14-0.791,7.325-1.791c2.667-1.225,4.514-2.871,5.542-4.937c0.45-0.903,0.675-1.774,0.675-2.614
	C94.404,85.527,92.588,83.785,88.958,82.978L88.958,82.978z M74.887,96.626l0.53-0.968c0.224,0.387,0.449,0.773,0.674,1.162
	C75.641,96.788,75.24,96.724,74.887,96.626L74.887,96.626z M73.248,95.997c-0.707-0.484-1.06-1.097-1.06-1.84
	c0-0.936,0.353-1.403,1.06-1.403c0.417,0,0.803,0.307,1.157,0.919C74.019,94.448,73.634,95.224,73.248,95.997L73.248,95.997z"/>
<path fill="#FFFFFF" d="M97.68,91.641c-0.418,0-0.779,0.153-1.084,0.461c-0.305,0.307-0.458,0.652-0.458,1.04
	c0,0.773,0.386,1.162,1.157,1.162c0.417,0,0.778-0.154,1.084-0.46c0.305-0.307,0.457-0.654,0.457-1.041
	C98.836,92.028,98.452,91.641,97.68,91.641L97.68,91.641z M101.825,101.177c-0.032,0-0.45,0.516-1.253,1.548
	c-0.933,1.194-1.783,2.13-2.554,2.807c-1.157,1.033-2.201,1.549-3.133,1.549c-0.835,0-1.252-0.58-1.252-1.742
	c0-1.678,0.802-3.775,2.409-6.293c0.128-0.192,0.193-0.37,0.193-0.531c0-0.29-0.121-0.564-0.361-0.823
	c-0.241-0.258-0.506-0.387-0.795-0.387c-0.258,0-0.482,0.145-0.675,0.437c-0.643,0.87-1.252,2.08-1.831,3.629
	c-0.643,1.678-0.964,3.002-0.964,3.969c0,1.904,0.883,2.855,2.651,2.855c2.055,0,4.545-1.952,7.469-5.856
	c0.225-0.29,0.338-0.548,0.338-0.774C102.066,101.305,101.986,101.177,101.825,101.177L101.825,101.177z"/>
<path fill="#FFFFFF" d="M114.402,101.273c-0.064,0-0.144,0.048-0.24,0.145c-1.286,1.613-2.877,2.564-4.771,2.855
	c0-0.936-0.21-2.033-0.628-3.292c-0.386-1.032-0.787-2.081-1.204-3.145c-0.097-0.291-0.145-0.564-0.145-0.823
	c0-0.71,0.305-1.299,0.915-1.767c0.61-0.467,1.285-0.702,2.024-0.702s1.108-0.128,1.108-0.388c0-0.418-0.234-0.773-0.699-1.064
	c-0.466-0.29-0.924-0.436-1.372-0.436c-1.158,0-2.299,0.646-3.423,1.936c-0.707,0.808-1.599,2.154-2.675,4.042
	s-1.871,3.09-2.385,3.605c-0.354-0.451-0.691-0.678-1.012-0.678c-0.515,0-0.771,0.469-0.771,1.404c0,1.451,0.626,2.734,1.88,3.848
	c1.253,1.113,2.617,1.67,4.096,1.67c0.995,0,1.888-0.291,2.675-0.872s1.276-1.354,1.47-2.323c2.506-0.483,4.288-1.564,5.35-3.242
	c0.063-0.128,0.096-0.258,0.096-0.387C114.691,101.401,114.595,101.273,114.402,101.273L114.402,101.273z M107.27,104.418
	c-1.992-0.097-3.969-0.628-5.928-1.598c1.253-1.516,2.729-3.629,4.434-6.339c-0.097,0.516,0.128,1.678,0.675,3.483
	c0.546,1.937,0.819,3.26,0.819,3.97C107.27,104.097,107.27,104.258,107.27,104.418L107.27,104.418z M104.475,107.129
	c-1.864,0-3.229-1.064-4.097-3.194l0.145-0.145c1.67,1.16,3.839,1.726,6.506,1.693C106.579,106.58,105.727,107.129,104.475,107.129
	L104.475,107.129z"/>
<path fill="#FFFFFF" d="M124.714,101.321c-0.193,0-0.402,0.145-0.627,0.436c-0.771,1.032-1.815,2.017-3.132,2.953
	c-1.543,1.097-2.844,1.644-3.903,1.644c-1.253,0-1.88-0.838-1.88-2.517c0-0.936,0.225-2.129,0.675-3.58
	c0.45-1.452,0.932-2.582,1.446-3.389c3.34-0.098,5.012-0.387,5.012-0.871c0-0.193-0.193-0.291-0.578-0.291c-0.226,0-0.563,0-1.012,0
	c-0.451,0.033-0.788,0.049-1.013,0.049c-0.837,0-1.479-0.016-1.928-0.049c0.867-1.515,2.007-3.226,3.422-5.13
	c0.834-1.064,1.478-1.888,1.927-2.469c0.032-0.063,0.049-0.112,0.049-0.145c0-0.291-0.354-0.436-1.061-0.436
	c-0.803,0-1.431,0.227-1.879,0.677c-0.611,0.55-1.383,1.711-2.313,3.486c-1.222,2.258-1.929,3.548-2.12,3.871
	c-0.418,0-1.046-0.031-1.88-0.097c-0.836-0.064-1.446-0.097-1.832-0.097c-0.321,0-0.48,0.097-0.48,0.29
	c0,0.839,1.123,1.259,3.372,1.259c-1.156,2.389-1.734,4.614-1.734,6.679c0,2.679,0.915,4.017,2.746,4.017
	c1.254,0,2.859-0.659,4.82-1.983c1.767-1.227,3.066-2.42,3.903-3.582c0.128-0.193,0.192-0.354,0.192-0.484
	C124.907,101.401,124.842,101.321,124.714,101.321L124.714,101.321z"/>
<path fill="#FFFFFF" d="M135.364,101.563c0.063,0-0.369,0.419-1.301,1.258c-0.932,0.84-1.928,1.259-2.988,1.259
	c-0.61,0-1.156-0.145-1.638-0.436c1.35-2.678,2.023-4.888,2.023-6.63c0-0.806-0.176-1.581-0.53-2.323
	c-0.45-0.872-1.044-1.307-1.783-1.307c-1.125,0-2.071,0.55-2.844,1.646c-0.771,1.098-1.155,2.226-1.155,3.388
	c0,0.354,0.031,0.709,0.097,1.064c-1.607,2.484-2.41,4.646-2.41,6.486c0,1.321,0.562,1.983,1.687,1.983
	c1.573,0,3.101-1.177,4.579-3.533c0.545,0.323,1.139,0.484,1.782,0.484c0.867,0,1.759-0.273,2.675-0.823
	c0.915-0.548,1.598-1.209,2.048-1.984c0.063-0.063,0.096-0.129,0.096-0.193C135.701,101.677,135.588,101.563,135.364,101.563
	L135.364,101.563z M128.809,103.209c-1.06-0.774-1.799-1.774-2.215-3.002c0.641-1.225,1.253-1.839,1.831-1.839
	c0.319,0,0.481-0.048,0.481-0.145c0-0.064-0.017-0.146-0.048-0.242c0-0.13,0-0.21,0-0.241c-0.226-0.323-0.579-0.485-1.061-0.485
	c-0.515,0-1.029,0.308-1.542,0.92c-0.033-0.839,0.112-1.613,0.434-2.323c0.418-0.902,0.995-1.355,1.735-1.355
	c0.513,0,0.932,0.518,1.252,1.549c0.225,0.743,0.338,1.469,0.338,2.179C130.015,99.515,129.613,101.177,128.809,103.209
	L128.809,103.209z M127.076,105.629c-0.74,0.774-1.334,1.161-1.784,1.161c-0.481,0-0.723-0.322-0.723-0.968
	c0-0.903,0.481-2.371,1.446-4.404c0.545,0.936,1.35,1.759,2.41,2.469C128.167,104.436,127.717,105.016,127.076,105.629
	L127.076,105.629z"/>
<path fill="#FFFFFF" d="M149.966,101.079c-0.034,0-0.451,0.517-1.254,1.549c-0.996,1.259-1.863,2.227-2.602,2.903
	c-1.157,1.033-2.187,1.549-3.085,1.549c-1.061,0-1.59-0.563-1.59-1.693c0-1.193,0.561-2.887,1.687-5.083
	c1.123-2.193,1.686-3.273,1.686-3.241c0-0.323-0.112-0.605-0.337-0.848c-0.226-0.241-0.481-0.363-0.771-0.363
	c-0.226,0-0.61,0.314-1.157,0.944c-0.547,0.629-1.107,0.944-1.687,0.944c-0.835,0-1.397-0.5-1.686-1.501
	c1.316-1.549,1.976-2.727,1.976-3.533c0-0.419-0.113-0.854-0.338-1.308c-0.258-0.58-0.563-0.87-0.915-0.87
	c-0.547,0-0.98,0.612-1.302,1.839c-0.289,0.967-0.434,1.824-0.434,2.564c0,0.42,0.032,0.774,0.097,1.065
	c-1.285,2.71-2.555,4.921-3.809,6.631c-0.16,0.227-0.24,0.403-0.24,0.531c0,0.131,0.064,0.194,0.193,0.194
	c0.386,0,1.173-0.936,2.361-2.808c0.964-1.482,1.622-2.629,1.976-3.437c0,0.453,0.289,0.855,0.867,1.211
	c0.482,0.322,0.979,0.484,1.494,0.484c0.224,0,0.434-0.033,0.626-0.098c-1.349,2.227-2.023,4.34-2.023,6.341
	c0,2.097,0.898,3.146,2.699,3.146c2.474,0,4.964-2,7.47-6.001c0.192-0.291,0.288-0.565,0.288-0.823
	C150.158,101.177,150.093,101.079,149.966,101.079L149.966,101.079z"/>
<path fill="#FFFFFF" d="M163.652,101.466c-0.098,0-0.795,0.783-2.097,2.348c-1.301,1.565-2.306,2.348-3.013,2.348
	c-0.996,0-1.493-1.162-1.493-3.485c0-2.517,0.386-4.404,1.156-5.662c0.097-0.162,0.257-0.274,0.482-0.339
	c0.225-0.064,0.337-0.113,0.337-0.146c0-0.063-0.048-0.176-0.145-0.338c-0.514-0.806-1.35-1.21-2.506-1.21
	c-0.514,0-1.044,0.113-1.59,0.339c-1.511,0.516-3.068,1.959-4.675,4.332c-1.606,2.372-2.409,4.396-2.409,6.074
	c0,1.097,0.497,1.646,1.493,1.646c1.67,0,3.582-1.92,5.735-5.76c-0.065,0.521-0.097,1.01-0.097,1.466
	c0,2.798,0.979,4.196,2.939,4.196c0.578,0,1.157-0.146,1.735-0.439c1.253-0.649,2.586-2.131,3.999-4.44
	c0.193-0.294,0.29-0.521,0.29-0.684C163.796,101.548,163.748,101.466,163.652,101.466L163.652,101.466z M152.76,103.692
	c-1.125,1.483-2.041,2.226-2.746,2.226c-0.45,0-0.676-0.338-0.676-1.016c0-1.517,0.98-3.468,2.94-5.857
	c1.381-1.644,2.715-2.467,3.999-2.467c0.161,0,0.306,0.017,0.435,0.048C155.652,99.337,154.334,101.692,152.76,103.692
	L152.76,103.692z"/>
<path fill="#FFFFFF" d="M177.193,101.079c-0.096,0-0.482,0.468-1.157,1.402c-0.835,1.162-1.59,2.034-2.265,2.613
	c-1.027,0.938-1.992,1.405-2.891,1.405c-1.156,0-1.735-0.613-1.735-1.84c0-1.742,0.899-4.098,2.698-7.066
	c0.129-0.226,0.193-0.419,0.193-0.58c0-0.742-0.37-1.113-1.109-1.113c-0.256,0-0.514,0.113-0.77,0.339
	c-1.318,1.42-2.314,2.517-2.989,3.291c-2.023,2.227-3.228,3.598-3.614,4.113c1.511-4.64,2.266-7.123,2.266-7.45
	c0-0.194-0.113-0.293-0.338-0.293c-0.288,0-0.609,0.114-0.963,0.342c-0.354,0.228-0.578,0.455-0.675,0.683
	c-0.225,1.009-0.386,1.773-0.481,2.294c-0.739,3.059-1.446,5.418-2.121,7.076c-0.064,0.099-0.097,0.229-0.097,0.391
	c0,0.586,0.146,0.879,0.434,0.879c0.097,0,0.241-0.146,0.435-0.436c2.345-3.581,4.642-6.389,6.891-8.422
	c-0.931,1.564-1.397,3.367-1.397,5.411c0,2.298,0.915,3.446,2.747,3.446c2.345,0,4.609-1.796,6.795-5.39
	c0.193-0.317,0.29-0.587,0.29-0.81C177.338,101.175,177.289,101.079,177.193,101.079L177.193,101.079z"/>
<path fill="#FFFFFF" d="M187.362,101.321c-0.194,0-0.402,0.145-0.627,0.436c-0.771,1.032-1.816,2.017-3.132,2.953
	c-1.543,1.097-2.844,1.644-3.904,1.644c-1.253,0-1.879-0.838-1.879-2.517c0-0.936,0.224-2.129,0.675-3.58
	c0.449-1.452,0.932-2.582,1.445-3.389c3.342-0.098,5.013-0.387,5.013-0.871c0-0.193-0.193-0.291-0.579-0.291
	c-0.226,0-0.563,0-1.012,0c-0.451,0.033-0.788,0.049-1.012,0.049c-0.837,0-1.479-0.016-1.928-0.049
	c0.867-1.515,2.007-3.226,3.421-5.13c0.835-1.064,1.478-1.888,1.928-2.469c0.032-0.063,0.048-0.112,0.048-0.145
	c0-0.291-0.353-0.436-1.06-0.436c-0.804,0-1.431,0.227-1.88,0.677c-0.611,0.55-1.381,1.711-2.313,3.486
	c-1.222,2.258-1.928,3.548-2.121,3.871c-0.418,0-1.044-0.031-1.88-0.097c-0.835-0.064-1.445-0.097-1.83-0.097
	c-0.321,0-0.482,0.097-0.482,0.29c0,0.839,1.123,1.259,3.373,1.259c-1.156,2.389-1.734,4.614-1.734,6.679
	c0,2.679,0.916,4.017,2.747,4.017c1.252,0,2.859-0.659,4.819-1.983c1.767-1.227,3.067-2.42,3.903-3.582
	c0.128-0.193,0.192-0.354,0.192-0.484C187.554,101.401,187.49,101.321,187.362,101.321L187.362,101.321z"/>
<path fill="#FFFFFF" d="M196.805,101.708c-0.224,0-0.448,0.162-0.674,0.484c-0.867,1.032-1.912,1.952-3.132,2.758
	c-1.413,0.937-2.684,1.403-3.808,1.403c-1.188,0-1.782-0.659-1.782-1.982c0-0.55,0.111-1.228,0.337-2.034
	c1.123-0.418,2.36-1.258,3.711-2.517c1.509-1.419,2.265-2.63,2.265-3.63c0-0.321-0.12-0.629-0.361-0.919
	c-0.242-0.291-0.521-0.437-0.844-0.437c-1.639,0-3.229,1.065-4.771,3.194c-1.445,2.001-2.169,3.841-2.169,5.519
	c0,2.548,1.012,3.823,3.036,3.823c1.413,0,2.973-0.564,4.674-1.694c1.606-1.065,2.813-2.226,3.615-3.484
	c0.063-0.129,0.097-0.227,0.097-0.291C197,101.773,196.934,101.708,196.805,101.708L196.805,101.708z M190.686,99.481
	c-0.9,0.904-1.768,1.533-2.603,1.888c0.193-0.709,0.69-1.693,1.494-2.952c0.932-1.483,1.639-2.227,2.12-2.227
	c0.386,0,0.578,0.194,0.578,0.58C192.276,97.546,191.747,98.448,190.686,99.481L190.686,99.481z"/>
</svg>
